<svg id="Layer_1" data-name="Layer 1" xmlns="http://www.w3.org/2000/svg" xmlns:xlink="http://www.w3.org/1999/xlink" viewBox="0 0 1478.89 1037.15"><defs><style>.cls-1{fill:#ed3e23;}.cls-2{fill:#5252c1;}.cls-3{fill:url(#linear-gradient);}.cls-4{font-size:196.65px;fill:#4f4848;font-family:BrandonGrotesque-BoldItalic, Brandon Grotesque;font-weight:700;font-style:italic;}.cls-5{letter-spacing:-0.01em;}.cls-6{font-size:44.05px;font-family:BrandonGrotesque-Light, Brandon Grotesque;font-weight:300;}.cls-7{letter-spacing:-0.01em;}.cls-8{letter-spacing:0em;}.cls-9{letter-spacing:0em;}</style><linearGradient id="linear-gradient" x1="-550.01" y1="747.42" x2="1465.85" y2="747.42" gradientUnits="userSpaceOnUse"><stop offset="0" stop-color="#ef9a11"/><stop offset="0.22" stop-color="#d45c00"/><stop offset="0.24" stop-color="#d65f01"/><stop offset="0.46" stop-color="#e37f0a"/><stop offset="0.64" stop-color="#ec930f"/><stop offset="0.76" stop-color="#ef9a11"/></linearGradient></defs><path id="RedArrow" class="cls-1" d="M912.12,546.88,614.4,333.6c1.91,7.33,4.55,13,3.5,29.47A119.49,119.49,0,0,1,612,393.7a141,141,0,0,1-24.74,46.09c-25.24,30.89-57.78,41.49-69.08,45-23.37,7.28-43.05,5.92-82.46,4.47a454.19,454.19,0,0,1-75.49-9.15c-21.29-2.76-46.8-8.79-86.92-22.11-28.19-11.67-56.44-20.21-85.4-32.79-30.41-13.25-60.2-35.15-88.74-59.07a299.76,299.76,0,0,1-44.73-46.28c-15.91-20.53-33.74-47.17-44.72-89.44V863.31c11-42.24,28.81-68.91,44.72-89.45a301.58,301.58,0,0,1,44.73-46.23c28.54-23.92,59.08-41.48,89.49-54.73,57.93-25.16,119.19-36.23,178.94-36.23H614.4V760.15Z" transform="translate(-9.67 -228.85)"/><path id="BlueArrow" class="cls-2" d="M912.12,943.85,614.4,730.58v123.5H367.55c-59.75,0-121-11.08-178.94-36.24-30.41-13.25-61-30.81-89.49-54.72a300.66,300.66,0,0,1-44.73-46.28C38.48,696.3,20.65,669.67,9.67,627.39v632.89c11-42.23,28.81-68.91,44.72-89.45a302,302,0,0,1,44.73-46.23c11.9-10,40.18-32.48,89.49-54.73,65.41-29.52,129.71-41.51,177.58-46.49,32.06-3.24,70.54-5.8,113.51-3.14,0,0,40.21,1.8,70.47,13.4a154.33,154.33,0,0,1,23.89,11.76c2.93,2.21,8.91,4.65,18,13.15,14.54,13.58,16.46,21,18.85,25.49a58.24,58.24,0,0,1,5.62,18.23c1.55,11.85,1.27,36.06-2.14,54.85Z" transform="translate(-9.67 -228.85)"/><path id="YelloArrow" class="cls-3" d="M1488.56,747.45,1000.66,398V500.14A100.18,100.18,0,0,1,900.47,600.33H596.14c-97.91,0-198.3-18.14-293.23-59.37-49.84-21.71-99.89-50.49-146.66-89.69A492.35,492.35,0,0,1,83,375.43c-26.08-33.66-55.3-77.3-73.29-146.58V1266c18-69.21,47.21-112.92,73.29-146.58a494.91,494.91,0,0,1,73.29-75.77c46.77-39.2,96.82-68,146.66-89.68,94.93-41.24,195.32-59.38,293.23-59.38H892.42a108.24,108.24,0,0,1,108.24,108.25V1097Z" transform="translate(-9.67 -228.85)"/><text id="MainText" class="cls-4" transform="translate(127.78 552.77) scale(1.2 1)">Arrow <tspan class="cls-5" x="487.09" y="0">J</tspan><tspan x="563.59" y="0">obs</tspan></text><text id="Subtext" class="cls-6" transform="translate(119.26 616.36) scale(1.2 1)"><tspan class="cls-7">D</tspan><tspan x="32.07" y="0">elivering sustainable g</tspan><tspan class="cls-8" x="400.14" y="0">r</tspan><tspan x="414.28" y="0">owth for ca</tspan><tspan class="cls-9" x="607.01" y="0">r</tspan><tspan x="621.15" y="0">eer and life</tspan></text></svg>