<svg xmlns="http://www.w3.org/2000/svg" xmlns:xlink="http://www.w3.org/1999/xlink" width="482.296" height="308" viewBox="0 0 482.296 308"><defs><clipPath id="a"><path d="M163.734,199.974s-17.227-35.915-25.175-65.49,1.38-29.743,8.043-30.409,19.155,3,19.155,3,22.087,26.483,27.315,26.483-9.294-23.329-9.294-23.329,14.539,4.313,25.353,21.331,6.952,24.343,7.785,31.5,15.132,36.912,15.132,36.912Z" transform="translate(-135.508 -103.994)" fill="none"/></clipPath></defs><g transform="translate(-52.527 -35.789)"><path d="M483.668,292.638s-32.188-72.076-17.956-85.583,33.518,20.2,33.518,20.2-4.677-68.455,21.325-73.719S546.1,221.744,546.1,221.744s19.5-51.942,45.615-58.458-10.629,75.73-10.629,75.73S599.814,208.895,613.2,226.4s-41.807,68.185-41.939,66.331S483.668,292.638,483.668,292.638Z" transform="translate(-80.465 -23.08)" fill="#def09e"/><path d="M615.631,165.879,557.088,293.371a.2.2,0,0,0,.1.261.19.19,0,0,0,.083.018.2.2,0,0,0,.179-.115l58.542-127.487C615.872,165.988,615.753,165.931,615.631,165.879Z" transform="translate(-99.127 -25.559)" fill="#98ae96"/><path d="M637.758,245.783l-54.618,63.24a.2.2,0,0,0,.3.258l54.514-63.121C637.891,246.034,637.826,245.908,637.758,245.783Z" transform="translate(-104.24 -41.257)" fill="#98ae96"/><path d="M544.32,259.62a.2.2,0,0,0,.178-.215l-9.434-105.86c-.083.015-.164.027-.247.044-.048.01-.095.022-.143.032l9.431,105.819a.2.2,0,0,0,.2.181Z" transform="translate(-94.727 -23.135)" fill="#98ae96"/><path d="M468.673,218.474l36.781,86.314a.2.2,0,0,0,.189.124.2.2,0,0,0,.079-.016.2.2,0,0,0,.11-.263l-36.815-86.393C468.9,218.312,468.788,218.395,468.673,218.474Z" transform="translate(-81.76 -35.846)" fill="#98ae96"/><rect width="78.677" height="112.504" transform="translate(506.121 264.456) rotate(90)" fill="#ffeddd"/><rect width="78.677" height="9.368" transform="translate(411.556 264.456) rotate(90)" fill="#fff"/><rect width="78.677" height="37.11" transform="translate(491.137 264.456) rotate(90)" fill="#ffd9b8"/><path d="M168.816,288.618s23.273-114.1,3.857-127.212-48.242,50.376-48.242,50.376-27.4-53.948-53.91-58.589,13.866,87.473,13.866,87.473S66.973,198.63,54.872,217.04,81.456,296.8,81.456,294.946,168.816,288.618,168.816,288.618Z" transform="translate(0 -23.033)" fill="#def09e"/><path d="M69,153.768a.063.063,0,0,0-.008-.012c-.119.055-.237.113-.35.177l57.408,137.437.417-.026Z" transform="translate(-3.167 -23.177)" fill="#98ae96"/><rect width="112.504" height="0.395" transform="translate(393.616 272.298)" fill="#e29570"/><path d="M97.917,307.683a.2.2,0,0,0,.267.083.2.2,0,0,0,.083-.266L57.6,229.887c-.095.1-.19.2-.284.308Z" transform="translate(-0.941 -38.134)" fill="#98ae96"/><path d="M159,295.879h.011a.2.2,0,0,0,.2-.186l6.3-112.909q-.215.288-.427.579L158.816,295.67A.2.2,0,0,0,159,295.879Z" transform="translate(-20.882 -28.88)" fill="#98ae96"/><rect width="78.677" height="112.504" transform="translate(182.377 264.456) rotate(90)" fill="#ffeddd"/><rect width="78.677" height="37.11" transform="translate(167.474 264.456) rotate(90)" fill="#ffd9b8"/><rect width="78.677" height="9.368" transform="translate(90.684 264.456) rotate(90)" fill="#fff"/><rect width="112.504" height="0.395" transform="translate(69.872 272.298)" fill="#e29570"/><path d="M423.343,163.487s24.562-60.278-18.431-79.615-77.359,43.641-127.66,57.259-87.866-38.38-138.066-28.21-20.169,56.867-20.169,56.867Z" transform="translate(-11.312 -8.728)" fill="#ffeddd"/><path d="M425.772,175.058l-29.274.02-12.553-30.746,29.274-.02Z" transform="translate(-65.114 -21.321)" fill="#503c6b"/><path d="M419.765,160.358l-29.274.02-12.553-30.746,29.274-.02Z" transform="translate(-63.933 -18.433)" fill="#3e2e53"/><path d="M3.629,0H111.472A3.629,3.629,0,0,1,115.1,3.629V75.574a3.628,3.628,0,0,1-3.628,3.628H3.628A3.628,3.628,0,0,1,0,75.574V3.629A3.629,3.629,0,0,1,3.629,0Z" transform="translate(274.967 56.963)" fill="#503c6b"/><rect width="41.866" height="31.106" transform="translate(275.023 88.016)" fill="#e6f4ff"/><path d="M356.4,109.219l2.979,15.628-7.1,1.478S350.444,110.378,356.4,109.219Z" transform="translate(-58.839 -14.427)" fill="#fff"/><path d="M376.5,136.57c-4.231-6.832-9.2-12.319-14.109-11.959-4.568.335-2.913,5.5,1.055,11.959Z" transform="translate(-60.338 -17.447)" fill="#ffdacf"/><rect width="41.867" height="31.106" transform="translate(316.889 88.016)" fill="#e6f4ff"/><path d="M332.315,62.14a2.891,2.891,0,0,0-2.891,2.89V93.245H371.29V62.14Z" transform="translate(-54.402 -5.177)" fill="#e6f4ff"/><path d="M375.817,77.959a.818.818,0,0,0-.805-.035c-.995.487-1.991,3.183-2.961,8.01-.088.438-.172.875-.251,1.3.082-1.238.151-2.579.186-3.92.172-6.7-.539-10.089-2.173-10.373a1.213,1.213,0,0,0-1.051.321c-1.86,1.648-2.031,9.468-1.964,14.041-.168-1.019-.375-2.182-.613-3.348-1.39-6.815-2.461-7.086-2.813-7.174a.516.516,0,0,0-.481.118c-1.63,1.395-.272,16.667-.112,18.4a.173.173,0,0,0,.017.057h.359a.193.193,0,0,0,.017-.093c-.622-6.739-1.141-17.113-.025-18.068a.13.13,0,0,1,.128-.035c1.433.362,2.954,8.262,3.626,13.484a.2.2,0,0,0,.214.171.2.2,0,0,0,.179-.207c-.008-.149-.738-14.869,1.73-17.056a.827.827,0,0,1,.721-.227c2.816.489,1.781,14.355,1.144,19.658a.2.2,0,0,0,.391.048c.484-3.811,2.132-13.892,3.906-14.762a.423.423,0,0,1,.432.02c.544.321,1.188,1.888-.611,8.776-1.053,4.034-2.44,7.915-2.58,8.2a.2.2,0,0,0-.027.086h.4c.663-1.474,3.885-11.263,3.776-15.34C376.55,78.92,376.3,78.244,375.817,77.959Z" transform="translate(-60.821 -7.296)" fill="#b5daff"/><path d="M359.286,136.685l.662-11.5-22.672,1.811,0,0c-1.229.087-2.612.765-4.051,2.55a8.725,8.725,0,0,0-1.609,7.14Z" transform="translate(-54.802 -17.563)" fill="#ffdacf"/><path d="M421.344,113.624c-2.28-.64-5.071.274-8.3,2.721a30.8,30.8,0,0,0-3.829,3.493,37.82,37.82,0,0,0-1.256-7.241c-1.482-5.151-3.951-8.014-7.143-8.279a2.923,2.923,0,0,0-2.563,1.025c-1.638,1.876-2.117,6.259-1.424,13.025.4,3.893,1.09,7.495,1.383,8.929-2.12-2.113-10.638-10.38-14.55-10.851a1.014,1.014,0,0,0-1.083.418c-1.437,2.3,5.975,13.983,7.093,15.719h.421a.187.187,0,0,0-.028-.118c-2.371-3.67-8.278-13.588-7.151-15.392.046-.074.187-.3.7-.235,4.255.511,14.681,11.1,14.787,11.208a.2.2,0,0,0,.333-.18c-.039-.179-3.933-17.969-.185-22.264a2.513,2.513,0,0,1,2.233-.892c7.328.607,8.061,15.466,8.067,15.616a.2.2,0,0,0,.346.12c.068-.079,6.873-7.894,12.036-6.442a1.137,1.137,0,0,1,.9.933c.73,3.868-11.5,17.038-12.166,17.565a.193.193,0,0,0-.073.081h.516c1.843-1.883,12.219-13.078,12.149-17.336A1.574,1.574,0,0,0,421.344,113.624Z" transform="translate(-64.81 -13.461)" fill="#b5daff"/><path d="M357.646,73.4s2.962,1.871,2.775,4.739,3.854,4.427,1.428,8.371-6.946,1.819-7.757-.39S357.646,73.4,357.646,73.4Z" transform="translate(-59.229 -7.389)" fill="#522d34"/><path d="M336.148,98.182s1.744-10.5,13.627-10.5a14.3,14.3,0,0,1,14.333,10.487Z" transform="translate(-55.723 -10.196)" fill="#2e6587"/><path d="M348.463,88.156c.07.219,1.669,5.114,5.04,5.114a3.6,3.6,0,0,0,.534-.04,2.913,2.913,0,0,0,2.141-1.284,5.211,5.211,0,0,0,.4-3.638c-.142-.038-.283-.077-.429-.112a5.062,5.062,0,0,1-.305,3.536,2.535,2.535,0,0,1-1.867,1.107c-3.256.48-4.97-4.305-5.127-4.765q-.2.037-.389.081Z" transform="translate(-58.142 -10.273)" fill="#ffc4b3"/><path d="M345.371,98.815a10.645,10.645,0,0,0-3.1-7.895c-.106.079-.215.157-.317.239a10.254,10.254,0,0,1,3.024,7.656Z" transform="translate(-56.864 -10.831)" fill="#ffc4b3"/><path d="M366.767,98.611a10.41,10.41,0,0,0-2.69-7.67,13.37,13.37,0,0,0-1.6-1.027,10.491,10.491,0,0,1,3.895,8.7Z" transform="translate(-60.896 -10.634)" fill="#ffc4b3"/><path d="M350.43,87.059l.168-4.96h4.907s1.254,5.99-.407,7.393S351.441,88.847,350.43,87.059Z" transform="translate(-58.529 -9.098)" fill="#f8a68b"/><path d="M350.608,84.8l.138.615a4.288,4.288,0,0,0,4.179,3.218c1.32-.09,1.1-1.635,1.05-2.628l-3.569-1.291S351.028,84,350.608,84.8Z" transform="translate(-58.564 -9.555)" fill="#ea8577"/><path d="M357.453,78.242c0,3.707.128,7.048-2.627,7.048s-6.736-3.005-6.736-6.713,2.234-6.713,4.988-6.713S357.453,74.535,357.453,78.242Z" transform="translate(-58.069 -7.088)" fill="#f8a68b"/><path d="M348.959,73.924a7.6,7.6,0,0,0,4.664.794c3.149-.249,3.991-3.212,3.523-3.8s-2.173.718-3.924,0-4.432-1.31-6.427.935-1.248,3.96-1,5.768-5.207,3.18-5.144,6.8,4.747,4.157,6.235,2.963,2.475-2.2,1.863-6.418A18.148,18.148,0,0,1,348.959,73.924Z" transform="translate(-56.608 -6.774)" fill="#522d34"/><path d="M356.917,77.94l-.03,1.03,2.015-.084.117-1.057Z" transform="translate(-59.797 -8.259)" fill="#ea8577"/><path d="M351.961,78.257l.218,1.121,2.041-.184.154-1.028Z" transform="translate(-58.829 -8.326)" fill="#ea8577"/><path d="M462.519,62.342H433.757v62h31.311V64.892A2.55,2.55,0,0,0,462.519,62.342Z" transform="translate(-74.9 -5.217)" fill="#fff"/><rect width="41.867" height="31.106" transform="translate(316.889 56.963)" fill="#e6f4ff"/><path d="M427.68,90.735a.2.2,0,0,1-.152-.324c.194-.3,2.806-5.342,2.4-7.186a.691.691,0,0,0-.3-.48.327.327,0,0,0-.33-.019c-1.092.509-2.108,5.255-2.407,7.041a.2.2,0,0,1-.222.163.2.2,0,0,1-.169-.218c.577-5.09.9-13.267-.692-13.544a.336.336,0,0,0-.309.1c-1.256,1.209-.376,10.009.068,13.3a.2.2,0,0,1-.386.077c-.616-2.348-1.932-6.157-2.843-6.387-.042-.01-.051,0-.055,0-.386.425.561,3.965,1.7,7.143a.2.2,0,0,1-.119.252.2.2,0,0,1-.252-.119c-2.222-6.2-1.8-7.34-1.619-7.541a.429.429,0,0,1,.444-.12c.907.228,1.849,2.572,2.462,4.431-.393-3.62-.906-10.133.328-11.321a.726.726,0,0,1,.651-.207c1.771.308,1.61,6.6,1.317,10.68.466-1.793,1.138-3.719,1.939-4.092a.722.722,0,0,1,.7.037,1.29,1.29,0,0,1,.533,1.166c.061,2.165-2.321,6.963-2.57,7.13A.2.2,0,0,1,427.68,90.735Z" transform="translate(-72.558 -7.855)" fill="#b5daff"/><path d="M428.623,99.084h-4.2l-1.351-6.466h6.458Z" transform="translate(-72.801 -11.165)" fill="#b5daff"/><path d="M420.948,97.759s-8-10.946-18.074-11.16S384.8,97.92,384.8,97.92Z" transform="translate(-65.282 -9.982)" fill="#ffdacf"/><path d="M408.662,85.738l-.167-4.96h-4.908s-1.254,5.99.407,7.393S407.652,87.526,408.662,85.738Z" transform="translate(-68.883 -8.839)" fill="#f8a68b"/><path d="M408.621,83.434l-.045.733a4.169,4.169,0,0,1-4.2,3.107c-1.58.053-1.278-1.6-1.23-2.594l3.568-1.29S408.2,82.633,408.621,83.434Z" transform="translate(-68.875 -9.288)" fill="#ea8577"/><path d="M400.712,77.446c.256,3.7.358,7.039,3.106,6.849s5.9-2.635,4.837-7.21c-.256-3.7-1.27-6.494-4.018-6.3S400.456,73.747,400.712,77.446Z" transform="translate(-68.402 -6.873)" fill="#f8a68b"/><path d="M402.889,77.053l.1,1.026-2.031.067-.174-1.059Z" transform="translate(-68.422 -8.107)" fill="#ea8577"/><path d="M407.787,77.023l-.141,1.133-2.049-.043-.224-1.015Z" transform="translate(-69.324 -8.101)" fill="#ea8577"/><path d="M405.253,76.809c.014.495,1.09.332,1.866.212.45-.069.612-.062.644-.127s-.119-.281-.558-.4C406.418,76.285,405.238,76.307,405.253,76.809Z" transform="translate(-69.3 -7.973)" fill="#6f3d47"/><path d="M403.03,76.865c.031.495-1.04.245-1.822.2-.454-.029-.539.051-.577-.01s.014-.321.441-.477C401.837,76.294,403,76.363,403.03,76.865Z" transform="translate(-68.39 -7.981)" fill="#6f3d47"/><path d="M404.284,81.892c-.039.153-.44.185-.9.069s-.779-.3-.741-.451.354.01.811.125S404.323,81.738,404.284,81.892Z" transform="translate(-68.787 -8.97)" fill="#ea8577"/><path d="M405.533,83.094l-2.718.008a1.606,1.606,0,0,0,1.432.644A1.372,1.372,0,0,0,405.533,83.094Z" transform="translate(-68.821 -9.294)" fill="#fff"/><path d="M405.625,78.362c.008.3.479.523,1.053.508s1.031-.268,1.023-.563-.424-.2-1-.188S405.617,78.066,405.625,78.362Z" transform="translate(-69.373 -8.311)" fill="#fff"/><path d="M405.578,78.509l-.029,0a.2.2,0,0,1-.167-.224c.023-.157.213-.424,1.225-.445.965-.013,1.205.2,1.24.381a.2.2,0,0,1-.37.127,1.6,1.6,0,0,0-.861-.112c-.651.013-.825.129-.856.155A.2.2,0,0,1,405.578,78.509Zm.194-.168Zm0,0h0Zm1.686-.046h0Zm0,0Zm0,0Zm0,0h0Z" transform="translate(-69.325 -8.261)" fill="#522d34"/><path d="M401,78.268c-.015.3.437.559,1.009.588s1.049-.186,1.064-.482-.407-.235-.979-.264S401.015,77.972,401,78.268Z" transform="translate(-68.464 -8.306)" fill="#fff"/><path d="M403.025,78.52a.2.2,0,0,1-.179-.114c-.019-.022-.181-.178-.864-.2-.653-.024-.832.092-.861.113a.2.2,0,0,1-.355-.166c.051-.142.284-.377,1.229-.341.984.036,1.18.33,1.218.456a.2.2,0,0,1-.13.247A.186.186,0,0,1,403.025,78.52Zm-1.887-.237h0Zm0,0Zm0,0h0Z" transform="translate(-68.416 -8.255)" fill="#522d34"/><path d="M402.674,80.887a.2.2,0,0,1-.1-.029.2.2,0,0,1-.064-.272c.313-.506,1.263-2.049,1.081-3.249a.2.2,0,1,1,.39-.059,5.805,5.805,0,0,1-1.134,3.515A.2.2,0,0,1,402.674,80.887Z" transform="translate(-68.754 -8.118)" fill="#ea8577"/><path d="M406.251,78.519a.5.5,0,0,1,.15-.394c.133,0,.276,0,.425,0,.1,0,.186-.007.272-.012a.51.51,0,0,1,.165.339.5.5,0,0,1-.147.39,1.968,1.968,0,0,1-.316.035,1.87,1.87,0,0,1-.4-.031A.5.5,0,0,1,406.251,78.519Z" transform="translate(-69.496 -8.315)" fill="#522d34"/><path d="M401.783,78.476a.508.508,0,0,1,.141-.384c.1.008.213.017.325.022.161.008.309.01.44.014a.5.5,0,0,1-.076.7,1.839,1.839,0,0,1-.449.03c-.062,0-.121-.009-.18-.018A.5.5,0,0,1,401.783,78.476Z" transform="translate(-68.618 -8.311)" fill="#522d34"/><path d="M403.629,84.679c.009.135.313.224.677.2s.653-.155.644-.291-.313-.224-.677-.2S403.619,84.544,403.629,84.679Z" transform="translate(-68.981 -9.547)" fill="#ea8577"/><path d="M403.441,92.561a3.368,3.368,0,0,0,.495.037c3.083,0,5.224-4.295,5.711-5.369-.13-.035-.262-.063-.393-.094-.55,1.174-2.779,5.476-5.756,5.036a2.328,2.328,0,0,1-1.764-1.065c-.777-1.3-.187-3.346-.048-3.781q-.229.069-.456.144a5.3,5.3,0,0,0,.165,3.839A2.7,2.7,0,0,0,403.441,92.561Z" transform="translate(-68.453 -10.088)" fill="#ffc4b3"/><path d="M417.1,89.864a15.119,15.119,0,0,0-3.414,8.595l.395,0a14.733,14.733,0,0,1,3.363-8.39C417.324,90,417.211,89.931,417.1,89.864Z" transform="translate(-70.956 -10.624)" fill="#ffc4b3"/><path d="M396.429,89.18c-.386.208-.762.428-1.131.656a13.188,13.188,0,0,0-3.38,8.566l.4,0C392.2,93.917,395.19,90.429,396.429,89.18Z" transform="translate(-66.679 -10.49)" fill="#ffc4b3"/><path d="M408.02,76.24l-.21,1.207a27.746,27.746,0,0,0-.381-3.083c-.4-.926-1.033-1.87-1.985-2.029-1.953-.327-3.667,2.487-5.507.939s-1.732-3.635-.5-3.952,1.9.37,4.113.526,3.809-.975,5.4-.276.823,2.986.823,2.986,1.265-.646,2.1,1.357-2.473,4.62-2.473,4.62Z" transform="translate(-67.979 -6.572)" fill="#2e6587"/><path d="M412.126,79.612a1.495,1.495,0,1,1-1.1-2.046A1.661,1.661,0,0,1,412.126,79.612Z" transform="translate(-70.078 -8.204)" fill="#f8a68b"/><path d="M411.536,79.348c.632.73-.282,1.167-.976,1.087l-.145-1.345s-.06-.766.567-.832S410.9,78.618,411.536,79.348Z" transform="translate(-70.314 -8.343)" fill="#ea8577"/><path d="M433.583,124.448a.2.2,0,0,1-.2-.2V62.091a.2.2,0,0,1,.395,0V124.25A.2.2,0,0,1,433.583,124.448Z" transform="translate(-74.827 -5.129)" fill="#503c6b"/><path d="M381.48,124.448a.2.2,0,0,1-.2-.2V62.091a.2.2,0,0,1,.395,0V124.25A.2.2,0,0,1,381.48,124.448Z" transform="translate(-64.59 -5.129)" fill="#503c6b"/><path d="M413.1,100.936H329.307a.2.2,0,0,1,0-.395H413.1a.2.2,0,0,1,0,.395Z" transform="translate(-54.34 -12.722)" fill="#503c6b"/><path d="M464.943,70.7H433.835a.2.2,0,1,1,0-.395h31.109a.2.2,0,1,1,0,.395Z" transform="translate(-74.876 -6.781)" fill="#503c6b"/><path d="M354.458,77.866c.02.495-1.065.407-1.847.341-.454-.039-.615-.02-.652-.083s.1-.288.53-.436C353.259,77.423,354.437,77.364,354.458,77.866Z" transform="translate(-58.828 -8.192)" fill="#6f3d47"/><path d="M356.841,77.766c0,.5,1.055.173,1.832.07.451-.06.542.015.575-.049s-.036-.319-.473-.446C357.992,77.113,356.838,77.264,356.841,77.766Z" transform="translate(-59.788 -8.143)" fill="#6f3d47"/><path d="M355.985,82.857c.05.15.452.154.9.008s.757-.351.708-.5-.353.034-.8.181S355.936,82.706,355.985,82.857Z" transform="translate(-59.619 -9.139)" fill="#ea8577"/><path d="M354.553,84.142l2.712-.179a1.6,1.6,0,0,1-1.384.742A1.374,1.374,0,0,1,354.553,84.142Z" transform="translate(-59.339 -9.465)" fill="#fff"/><path d="M354.295,79.441c.013.3-.441.555-1.014.579s-1.047-.2-1.06-.492.409-.231.982-.256S354.283,79.145,354.295,79.441Z" transform="translate(-58.881 -8.536)" fill="#fff"/><path d="M352.174,79.656a.2.2,0,0,1-.154-.317c.03-.037.321-.366,1.225-.366.863,0,1.1.213,1.155.278a.2.2,0,1,1-.306.249h0a1.7,1.7,0,0,0-.849-.133c-.706,0-.92.222-.922.224A.2.2,0,0,1,352.174,79.656Z" transform="translate(-58.833 -8.484)" fill="#522d34"/><path d="M358.9,79.019c.035.294-.4.588-.967.656s-1.059-.114-1.094-.407.39-.263.959-.332S358.869,78.725,358.9,79.019Z" transform="translate(-59.788 -8.458)" fill="#fff"/><path d="M356.8,79.439a.2.2,0,0,1-.049-.006.21.21,0,0,1-.146-.25c.028-.127.2-.433,1.168-.53.921-.092,1.18.1,1.254.222a.2.2,0,0,1-.337.207,1.564,1.564,0,0,0-.473-.058c-.111,0-.244.006-.406.022-.713.071-.83.25-.831.252A.178.178,0,0,1,356.8,79.439Z" transform="translate(-59.741 -8.417)" fill="#522d34"/><path d="M357.538,81.764a.2.2,0,0,1-.161-.083A5.81,5.81,0,0,1,356,78.253a.2.2,0,0,1,.213-.18.2.2,0,0,1,.18.212,5.654,5.654,0,0,0,1.3,3.168.2.2,0,0,1-.16.312Z" transform="translate(-59.622 -8.307)" fill="#ea8577"/><path d="M353.944,79.631a.5.5,0,0,0-.178-.382c-.132.009-.276.02-.424.027-.1,0-.186.006-.272.006a.5.5,0,0,0,.032.729,1.96,1.96,0,0,0,.318.012,1.889,1.889,0,0,0,.4-.058A.5.5,0,0,0,353.944,79.631Z" transform="translate(-59.02 -8.538)" fill="#522d34"/><path d="M358.4,79.278a.5.5,0,0,0-.167-.374c-.1.015-.211.031-.321.044-.16.019-.308.031-.438.044a.5.5,0,0,0,.124.7,1.874,1.874,0,0,0,.45,0c.062-.007.121-.018.178-.03A.5.5,0,0,0,358.4,79.278Z" transform="translate(-59.895 -8.471)" fill="#522d34"/><path d="M363.032,92.542s1.307-5.5,1.87-5.593.125,3.529.125,3.529,1.479-4.651,2.111-4.651-.638,4.554-.638,4.554,1.533-3.681,1.785-3.348-.55,4.407-.55,4.407,1.272-2.342,1.753-2.1-1.433,5.963-2.964,6.585a3.851,3.851,0,0,1-4.475-1.086c-.582-.64-.479-1.186-.539-2.142-.073-1.153-.76-2.086-.407-2.272s1.243.448,1.416,1.043A4.058,4.058,0,0,0,363.032,92.542Z" transform="translate(-60.606 -9.831)" fill="#f8a68b"/><path d="M353.005,82.149a.91.91,0,1,1-.626-.926A.8.8,0,0,1,353.005,82.149Z" transform="translate(-58.7 -8.916)" fill="#ea8577"/><path d="M356.906,85.6c0,.136-.3.245-.662.245s-.662-.109-.662-.245.3-.246.662-.246S356.906,85.466,356.906,85.6Z" transform="translate(-59.541 -9.738)" fill="#ea8577"/><path d="M359.016,80.827a.8.8,0,0,0-.422,1.036.742.742,0,0,0,.9.243c.009-.46.01-.937.01-1.424A1.052,1.052,0,0,0,359.016,80.827Z" transform="translate(-60.118 -8.82)" fill="#ea8577"/><path d="M439.12,65.9a2.037,2.037,0,1,1-2.037-2.037A2.037,2.037,0,0,1,439.12,65.9Z" transform="translate(-75.153 -5.516)" fill="#e6f4ff"/><rect width="1.853" height="1.504" transform="translate(360.806 59.733)" fill="#503c6b"/><path d="M437.56,66.34l1.294.747V65.594Z" transform="translate(-75.647 -5.856)" fill="#503c6b"/><circle cx="2.037" cy="2.037" r="2.037" transform="translate(364.948 58.35)" fill="#e6f4ff"/><path d="M443.733,67.053h0a.571.571,0,0,1-.571-.571V65.5a.571.571,0,0,1,.571-.571h0a.572.572,0,0,1,.571.571v.986A.572.572,0,0,1,443.733,67.053Z" transform="translate(-76.748 -5.724)" fill="#503c6b"/><path d="M443.638,67.709a.941.941,0,0,1-.731-.295,1.513,1.513,0,0,1-.293-1.046.1.1,0,0,1,.108-.089.1.1,0,0,1,.088.108,1.333,1.333,0,0,0,.243.9.751.751,0,0,0,.584.229.731.731,0,0,0,.576-.227,1.311,1.311,0,0,0,.22-.9.1.1,0,0,1,.2-.024,1.49,1.49,0,0,1-.268,1.049A.921.921,0,0,1,443.638,67.709Z" transform="translate(-76.639 -5.99)" fill="#503c6b"/><path d="M443.849,68.849a.1.1,0,0,1-.1-.1v-.77a.1.1,0,0,1,.2,0v.77A.1.1,0,0,1,443.849,68.849Z" transform="translate(-76.863 -6.305)" fill="#503c6b"/><rect width="18.286" height="3.702" transform="translate(369.961 58.6)" fill="#e6f4ff"/><path d="M441.531,141.789H331.991a3.376,3.376,0,0,1-3.372-3.372V64.775a3.375,3.375,0,0,1,3.372-3.372h109.54a3.375,3.375,0,0,1,3.372,3.372v73.643A3.376,3.376,0,0,1,441.531,141.789Zm-109.54-79.2a2.19,2.19,0,0,0-2.188,2.188v73.643a2.19,2.19,0,0,0,2.188,2.187h109.54a2.19,2.19,0,0,0,2.188-2.187V64.775a2.19,2.19,0,0,0-2.188-2.188Z" transform="translate(-54.244 -5.032)" fill="#503c6b"/><path d="M398.87,152.109a3.55,3.55,0,1,1,3.549-3.55A3.554,3.554,0,0,1,398.87,152.109Zm0-6.7a3.154,3.154,0,1,0,3.155,3.154A3.158,3.158,0,0,0,398.87,145.405Z" transform="translate(-67.349 -21.459)" fill="#ffc339"/><path d="M361.984,184.222a2.78,2.78,0,1,1,2.78-2.78A2.783,2.783,0,0,1,361.984,184.222Zm0-5.166a2.386,2.386,0,1,0,2.386,2.386A2.388,2.388,0,0,0,361.984,179.057Z" transform="translate(-60.253 -28.07)" fill="#503c6b"/><path d="M441.092,75.206a2.014,2.014,0,1,1-2.014-2.014A2.014,2.014,0,0,1,441.092,75.206Z" transform="translate(-75.55 -7.348)" fill="#e6f4ff"/><path d="M441.092,83.681a2.014,2.014,0,1,1-2.014-2.014A2.014,2.014,0,0,1,441.092,83.681Z" transform="translate(-75.55 -9.014)" fill="#ffc339"/><circle cx="2.014" cy="2.014" r="2.014" transform="translate(361.515 79.958)" fill="#e6f4ff"/><path d="M441.092,101.246a2.014,2.014,0,1,1-2.014-2.014A2.014,2.014,0,0,1,441.092,101.246Z" transform="translate(-75.55 -12.465)" fill="#ffc339"/><rect width="16.328" height="0.792" transform="translate(367.945 66.484)" fill="#503c6b"/><rect width="10.317" height="0.792" transform="translate(367.945 68.111)" fill="#503c6b"/><rect width="16.328" height="0.792" transform="translate(367.945 73.295)" fill="#503c6b"/><rect width="10.317" height="0.792" transform="translate(367.945 74.922)" fill="#503c6b"/><rect width="16.328" height="0.792" transform="translate(367.945 80.442)" fill="#503c6b"/><rect width="10.317" height="0.792" transform="translate(367.945 82.069)" fill="#503c6b"/><rect width="16.328" height="0.792" transform="translate(367.945 87.253)" fill="#503c6b"/><rect width="10.317" height="0.792" transform="translate(367.945 88.88)" fill="#503c6b"/><path d="M412.526,120.61l.561-10.644-4.451-1.735s-7.687,7.742-5.938,9.634,4.327.675,4.327.675l-.865,2.089-3.028.46,1.657,12.022,9.264-7.484Z" transform="translate(-68.747 -14.233)" fill="#f8a68b"/><path d="M403.3,124.233l3.268,6.932,5.2-5.379-5.106,8.7Z" transform="translate(-68.916 -17.377)" fill="#ea8577"/><path d="M392.429,125.465l-7.543,10.927,36.53-.012-6.4-11.963-5.939-.779-6.052,8.665-3.342-8.222Z" transform="translate(-65.298 -17.259)" fill="#c2dec0"/><path d="M413.287,114.43c.106-.092,3.008,2.245,4.653-1.945s-2.443-4.21-2.443-4.21.237-3.36-2.3-3.557a5.822,5.822,0,0,1-4.6-3.193c-.294-.88-2.6.366-1.972,3.022s2.083,3.069,2.083,3.069l4.743,1.849Z" transform="translate(-69.549 -12.86)" fill="#503c6b"/><path d="M412.136,112.51c.061-.187-.56-.653-1.021-.791s-.82.022-.834.367c-.006.154.415.216.819.305C411.6,112.5,412.1,112.613,412.136,112.51Z" transform="translate(-70.288 -14.908)" fill="#503c6b"/><path d="M407.651,110.647c.086-.176.469-.313.894-.089s.572.589.341.845c-.1.116-.448-.135-.8-.354C407.655,110.78,407.6,110.745,407.651,110.647Z" transform="translate(-69.768 -14.667)" fill="#503c6b"/><path d="M406.476,116.7a3.191,3.191,0,0,1-1.065-.186.2.2,0,0,1,.143-.368,2.248,2.248,0,0,0,2.308-.415.2.2,0,1,1,.292.267A2.2,2.2,0,0,1,406.476,116.7Z" transform="translate(-69.306 -15.693)" fill="#ea8577"/><path d="M410.752,112.774c.524.108.9.419.845.694s-.528.408-1.052.3-.9-.419-.846-.694S410.228,112.664,410.752,112.774Z" transform="translate(-70.172 -15.118)" fill="#fff"/><path d="M407.953,111.72c.314.259.46.6.324.767s-.5.088-.815-.17-.459-.6-.324-.767S407.639,111.461,407.953,111.72Z" transform="translate(-69.66 -14.867)" fill="#fff"/><path d="M416.514,115.529a1.76,1.76,0,1,1-2.366-.772A1.76,1.76,0,0,1,416.514,115.529Z" transform="translate(-70.858 -15.477)" fill="#f8a68b"/><g transform="translate(325.875 108.807)"><path d="M398.105,136.877l18.131.093.6-5.878-4.981,5.012,4.233-9.445-10.37,9.222,3.727-5.836Z" transform="translate(-393.77 -126.66)" fill="#b0c9ad"/><path d="M397.045,138.289l-3.533-4.444-.8,4.526Z" transform="translate(-392.71 -128.072)" fill="#b0c9ad"/></g><path d="M393.362,136.817l1.049-11-.395.075-.01.015-1.041,10.91Z" transform="translate(-66.886 -17.688)" fill="#98ae96"/><path d="M421.723,124.52l.975,12.035h.49l-.97-11.97Z" transform="translate(-72.536 -17.433)" fill="#98ae96"/><path d="M406.125,135.618a.2.2,0,0,0,.162-.084l8-11.524-.44-.058-7.693,11.076L401.2,124.5l-.4.076,5.146,10.931a.2.2,0,0,0,.162.113Z" transform="translate(-68.425 -17.321)" fill="#98ae96"/><path d="M408.4,125.016c.583,1.4,1.451.89,2.38-.035C409.781,125.417,408.956,125.492,408.4,125.016Z" transform="translate(-69.918 -17.523)" fill="#ea8577"/><path d="M415.591,117.645a.2.2,0,0,1-.153-.073l-.648-.8a.2.2,0,0,1,.007-.257l.722-.795a.2.2,0,1,1,.292.265l-.607.669.542.668a.2.2,0,0,1-.029.278A.2.2,0,0,1,415.591,117.645Z" transform="translate(-71.165 -15.691)" fill="#ea8577"/><path d="M408.056,120.786l1.923-1.127a3.029,3.029,0,0,1-2.292,2.018Z" transform="translate(-69.778 -16.478)" fill="#ea8577"/><path d="M408.066,111.823a1.392,1.392,0,0,0-.112-.1c-.314-.259-.679-.336-.815-.171s.006.5.309.754a.565.565,0,0,0,.313-.058A.572.572,0,0,0,408.066,111.823Z" transform="translate(-69.66 -14.867)" fill="#503c6b"/><path d="M410.482,113.611a.572.572,0,0,0,.251-.77.5.5,0,0,0-.049-.077c-.5-.084-.93.047-.984.309-.045.216.182.452.534.6A.576.576,0,0,0,410.482,113.611Z" transform="translate(-70.172 -15.118)" fill="#503c6b"/><path d="M408.309,112.362a.1.1,0,0,1-.092-.065.878.878,0,0,0-.9-.617.1.1,0,1,1-.022-.2,1.087,1.087,0,0,1,1.113.746.1.1,0,0,1-.059.126A.1.1,0,0,1,408.309,112.362Z" transform="translate(-69.683 -14.871)" fill="#503c6b"/><path d="M411.584,113.345a.1.1,0,0,1-.071-.031,1.528,1.528,0,0,0-1.543-.3.1.1,0,0,1-.129-.049.1.1,0,0,1,.043-.129,1.705,1.705,0,0,1,1.769.339.1.1,0,0,1,0,.14A.1.1,0,0,1,411.584,113.345Z" transform="translate(-70.2 -15.115)" fill="#503c6b"/><path d="M406.71,114.916a.2.2,0,0,1-.162-.086l-.858-1.248a.2.2,0,0,1-.027-.164.2.2,0,0,1,.108-.127l2.828-1.3a.2.2,0,0,1,.165.358l-2.615,1.2.725,1.054a.2.2,0,0,1-.051.274A.192.192,0,0,1,406.71,114.916Z" transform="translate(-69.379 -14.968)" fill="#ea8577"/><path d="M347.082,123.858l2.146-14.77s7.318-4.612,7.85,1.817-.862,9.368-2.055,10-3.45-.7-3.45-.7l1.318,3.6C354.094,128.653,349.065,130.909,347.082,123.858Z" transform="translate(-57.871 -14.086)" fill="#f8a68b"/><path d="M355.108,107.667c-1.147,2.939-2.76,5.365-6.3,4.668l-2.317,10.3-2.715.182s-1.958-13.663,4.018-16.3S355.108,107.667,355.108,107.667Z" transform="translate(-57.161 -13.712)" fill="#fff"/><path d="M350.644,115.634a2.011,2.011,0,0,1-1.789,1.887,1.659,1.659,0,0,1-1.409-1.912,1.8,1.8,0,0,1,1.707-1.743A1.579,1.579,0,0,1,350.644,115.634Z" transform="translate(-57.942 -15.339)" fill="#f8a68b"/><path d="M355.284,108.819a4.744,4.744,0,0,0,3.217,2.737s.142-4.341-3.1-5.6S355.284,108.819,355.284,108.819Z" transform="translate(-59.215 -13.738)" fill="#fff"/><path d="M355.678,119.507a3.161,3.161,0,0,1-2.273-1.018.2.2,0,1,1,.3-.256,2.79,2.79,0,0,0,2.266.862.2.2,0,1,1,.043.392A3.04,3.04,0,0,1,355.678,119.507Z" transform="translate(-59.104 -16.184)" fill="#ea8577"/><path d="M359.144,114.038c.018-.227-1.149-.707-1.525-.66s-.642.192-.56.582S359.125,114.265,359.144,114.038Z" transform="translate(-59.828 -15.243)" fill="#503c6b"/><path d="M352.955,113.495c.073-.215,1.217-.413,1.608-.289s.631.4.4.723S352.882,113.71,352.955,113.495Z" transform="translate(-59.025 -15.202)" fill="#503c6b"/><path d="M354.892,115.224c-.007.236-.494.413-1.087.394s-1.067-.227-1.059-.463.494-.414,1.087-.395S354.9,114.987,354.892,115.224Z" transform="translate(-58.984 -15.515)" fill="#fff"/><path d="M358.988,115.421c-.008.237-.495.413-1.087.394s-1.068-.226-1.06-.463.494-.413,1.087-.395S359,115.184,358.988,115.421Z" transform="translate(-59.788 -15.554)" fill="#fff"/><path d="M348.2,106.833a3.108,3.108,0,1,1-3.834-2.151A3.109,3.109,0,0,1,348.2,106.833Z" transform="translate(-56.892 -13.512)" fill="#fff"/><path d="M354.848,115.33a.1.1,0,0,1-.088-.053.938.938,0,0,0-.68-.44,1.578,1.578,0,0,0-1.278.294.1.1,0,0,1-.126-.151,1.788,1.788,0,0,1,1.443-.337,1.127,1.127,0,0,1,.816.542.1.1,0,0,1-.087.145Z" transform="translate(-58.963 -15.486)" fill="#503c6b"/><path d="M358.951,115.554a.1.1,0,0,1-.088-.052.934.934,0,0,0-.68-.44,1.586,1.586,0,0,0-1.278.294.1.1,0,0,1-.126-.151,1.784,1.784,0,0,1,1.442-.337,1.13,1.13,0,0,1,.816.542.1.1,0,0,1-.041.133A.1.1,0,0,1,358.951,115.554Z" transform="translate(-59.769 -15.53)" fill="#503c6b"/><path d="M348.626,116.739a.2.2,0,0,1-.083-.376l.791-.366-.5-.906a.2.2,0,1,1,.346-.19l.6,1.091a.2.2,0,0,1-.09.275l-.984.455A.2.2,0,0,1,348.626,116.739Z" transform="translate(-58.136 -15.523)" fill="#ea8577"/><path d="M352.38,123.214l-1.185-.434,1.818,2.16Z" transform="translate(-58.679 -17.091)" fill="#ea8577"/><path d="M351.187,132.042c-1.382.444-2.718-1.234-3.4-2.288,2,4.54,5.529,3.172,5.421-.375A3.453,3.453,0,0,1,351.187,132.042Z" transform="translate(-58.01 -18.387)" fill="#ea8577"/><path d="M353.217,114.835a.684.684,0,0,0-.186.468.648.648,0,0,0,.014.132,1.966,1.966,0,0,0,.816.182,2.488,2.488,0,0,0,.491-.033.68.68,0,0,0-.175-.8,2.479,2.479,0,0,0-.288-.027A2.206,2.206,0,0,0,353.217,114.835Z" transform="translate(-59.04 -15.515)" fill="#503c6b"/><path d="M356.93,115.2a.685.685,0,0,0-.059.25,1.31,1.31,0,0,0,1.036.369c.088,0,.173,0,.255,0a.678.678,0,0,0-.147-.846l-.08-.006A1.541,1.541,0,0,0,356.93,115.2Z" transform="translate(-59.794 -15.554)" fill="#503c6b"/><path d="M355.526,117.032a.2.2,0,0,1,0-.395l1.147-.006L356.2,113.9a.2.2,0,0,1,.389-.067l.512,2.961a.2.2,0,0,1-.193.231l-1.38.007Z" transform="translate(-59.491 -15.301)" fill="#ea8577"/><path d="M352.795,131.194a2.41,2.41,0,0,1-1.972,1.245l-.06.006c-3.437.332-5.405-4.454-5.85-5.678l-.406.033a14.964,14.964,0,0,0,1.515,3.111c1.38,2.115,3.033,3.142,4.783,2.972l.066-.006a2.767,2.767,0,0,0,2.256-1.447c.916-1.681.369-4.287.093-5.326l-.4.031C353.07,127.052,353.646,129.632,352.795,131.194Z" transform="translate(-57.365 -17.744)" fill="#ffc4b3"/><path d="M360.265,125.7l-.4.032a45.4,45.4,0,0,0,3.753,11.052h.471A44.438,44.438,0,0,1,360.265,125.7Z" transform="translate(-60.383 -17.665)" fill="#ffc4b3"/><path d="M343.841,137.141h.4c-.564-3.266-4.958-8.32-6.149-9.64a4.039,4.039,0,0,0-.46.108C338.4,128.452,343.207,133.834,343.841,137.141Z" transform="translate(-56.015 -18.019)" fill="#ffc4b3"/><path d="M374.8,110.73H364.467a.2.2,0,0,1-.2-.2v-6.219a.2.2,0,0,1,.2-.2H374.8a.2.2,0,0,1,.2.2v6.219A.2.2,0,0,1,374.8,110.73Zm-10.136-.395H374.6v-5.824h-9.938Z" transform="translate(-61.248 -13.424)" fill="#b5daff"/><path d="M374.8,116.3H364.467a.2.2,0,0,1-.2-.2v-2.24a.2.2,0,0,1,.2-.2H374.8a.2.2,0,0,1,.2.2v2.24A.2.2,0,0,1,374.8,116.3Zm-10.136-.395H374.6v-1.847h-9.938Z" transform="translate(-61.248 -15.301)" fill="#b5daff"/><path d="M425.45,183.034H380.356a2.638,2.638,0,0,1,2.639-2.638h41.4Z" transform="translate(-64.408 -28.411)" fill="#3e2e53"/><ellipse cx="12.989" cy="4.244" rx="12.989" ry="4.244" transform="translate(193.014 140.358) rotate(-66.365)" fill="#6f3d47"/><path d="M304.708,111.479s15.4-15.01,14.513-16.364-7.738,4.6-7.738,4.6,8.46-11.66,7.5-13-5.973,4.243-5.973,4.243,5.422-8.084,3.918-9.244-7.752,8.7-7.752,8.7,3.654-8.006,1.822-9.057S299.1,101.3,299.1,101.3Z" transform="translate(-48.444 -8.946)" fill="#ea8577"/><path d="M237.723,128.062l24.9,13.409s15.786-29.257,24.046-45.324c2.977-5.792,2.947-10.377,3.381-10.594,2.81-1.4,1.113,10.731,1.113,10.731,3.043,3.927,2.621,8.875.611,13.676,0,0-16.938,55.805-22.01,55.2s-38.522-12.64-42.047-16.6S237.723,128.062,237.723,128.062Z" transform="translate(-34.305 -9.755)" fill="#f8a68b"/><path d="M264.1,43.585c-12.848-1.744-21.508,2.372-23.583,4.917-4.42,5.423-7.877,16.778-5.432,23.482,2.033,5.573,9.519,8.063,16.866,10.051a16,16,0,0,1-9.089,4.637c3.891,1.471,10.588-.53,14.627-3.166,7.837,2.089,12.865,3.216,19.04-.444,6.467-3.832,10.018-12.48,10.312-25C287,51.42,278.632,45.557,264.1,43.585Z" transform="translate(-35.708 -1.449)" fill="#ffd9b8"/><path d="M267.208,84.5c-3.191,0-6.6-.909-10.979-2.075l-.093-.024c-.572-.153-1.154-.305-1.741-.459-7.436-1.949-15.863-4.158-18.034-9.765-1.079-2.786-1.073-6.666.018-10.925a26.361,26.361,0,0,1,4.8-9.987c1.717-2.035,9.589-5.92,21.8-4.213,12.96,1.812,21.275,6.992,21.184,13.195-.163,11.149-3.4,18.819-9.357,22.181A14.86,14.86,0,0,1,267.208,84.5ZM256.237,82.02l.092.025c7.776,2.071,12.469,3.321,18.283.041,5.83-3.289,9-10.843,9.156-21.843.088-5.992-8.094-11.016-20.844-12.8-10.984-1.536-19.289,1.524-21.442,4.076-4.026,4.771-6.979,14.771-4.754,20.515,2.1,5.419,10.423,7.6,17.766,9.525.588.154,1.171.307,1.744.46Z" transform="translate(-35.959 -2.13)" fill="#503c6b"/><path d="M427.672,284.1l24.962,26.621c1.045,8.144-1.012,13.441-9,13.294L415.55,302.522Z" transform="translate(-71.323 -48.785)" fill="#f8a68b"/><path d="M433.792,291.7l-8.879,19.319-8.288-6.341Z" transform="translate(-71.534 -50.278)" fill="#ea8577"/><path d="M384.57,355.278l6.474,22.5c-2.5,11.392-8.227,14.571-17.727,8.124L361.3,354.921Z" transform="translate(-60.665 -62.7)" fill="#f8a68b"/><path d="M390.49,372.4l-19.061,6.939,3.878,10c9.5,6.447,15.224,3.267,17.727-8.124Z" transform="translate(-62.654 -66.133)" fill="#ffeddd"/><path d="M385.245,355.365l-18,13.221-2.507-6.366Z" transform="translate(-61.339 -62.787)" fill="#ea8577"/><path d="M452.423,309.768c-2.263,3.5-6.575,10.214-9.343,14.723l5.967,4.566c7.985.147,10.041-5.151,9-13.294Z" transform="translate(-76.732 -53.828)" fill="#ffeddd"/><path d="M183.309,392.618,226.1,287.836a.592.592,0,0,1,1.1.448L184.4,393.066C184.311,393.3,183.185,392.921,183.309,392.618Z" transform="translate(-25.693 -49.447)" fill="#3e2e53"/><path d="M331.9,393.639,305.377,291.507a.592.592,0,1,1,1.146-.3l26.521,102.133C333.126,393.657,331.967,393.906,331.9,393.639Z" transform="translate(-49.674 -50.095)" fill="#3e2e53"/><path d="M296.4,330.5H220.247a.592.592,0,1,1,0-1.184H296.4a.592.592,0,0,1,0,1.184Z" transform="translate(-32.835 -57.668)" fill="#3e2e53"/><path d="M518.473,374.332,502.239,194a1.184,1.184,0,0,1,2.358-.212L520.832,374.12C520.89,374.771,518.473,374.332,518.473,374.332Z" transform="translate(-88.354 -30.831)" fill="#3e2e53"/><path d="M124.2,373.635,139.684,191.3a1.184,1.184,0,1,1,2.359.2L126.558,373.835Z" transform="translate(-14.081 -30.34)" fill="#3e2e53"/><path d="M456.3,221.786H108.061l2.961-30.1h342.23Z" transform="translate(-10.911 -30.63)" fill="#ffcaa4"/><g transform="translate(98.021 161.059)"><path d="M457.682,214.03q-8.711-1.36-17.38-2.962c-5.739-1.06-11.444-2.314-17.2-3.3a59.62,59.62,0,0,0-16.969-.932,38.65,38.65,0,0,0-14.5,4.926,64.668,64.668,0,0,0-6.356,4.141,25.471,25.471,0,0,0-5.54,4.842,7.488,7.488,0,0,0-1.533,3.965h.437a7.046,7.046,0,0,1,.726-2.461c1.147-2.266,3.369-3.84,5.352-5.323a69.864,69.864,0,0,1,6.176-4.165,39.152,39.152,0,0,1,14.317-5.311,56,56,0,0,1,17.187.7c5.61.938,11.171,2.171,16.762,3.213s11.186,2.007,16.8,2.9q16.82,2.669,33.765,4.439,9.589,1,19.206,1.71l-.051-.5q-7.988-.592-15.96-1.381Q475.247,216.771,457.682,214.03Z" transform="translate(-162.008 -194.611)" fill="#e29570"/><path d="M472.979,220.952a18.989,18.989,0,0,0-5.74-.592c-2.182.033-4.361.133-6.542.156a191.206,191.206,0,0,1-27.114-1.656c-4.422-.588-8.8-1.475-13.236-1.976a32.581,32.581,0,0,0-11.977.526,15.489,15.489,0,0,0-8.716,5.4,10.774,10.774,0,0,0-1.777,3.862h.511a9.775,9.775,0,0,1,.767-2.1,13.317,13.317,0,0,1,7.822-6.231c7.814-2.693,16.158-.506,24.043.649a191.511,191.511,0,0,0,25.595,2.01q3.206.036,6.412-.035c1.98-.045,3.965-.175,5.946-.107a12.581,12.581,0,0,1,5.621,1.281,8.013,8.013,0,0,1,3.142,3.116,9.09,9.09,0,0,1,.642,1.413h.52A8.868,8.868,0,0,0,472.979,220.952Z" transform="translate(-165.871 -196.579)" fill="#e29570"/><path d="M464.918,193.791a59.946,59.946,0,0,1,10.2.859,83.23,83.23,0,0,1,9.655,2.576c6.445,2.047,12.843,4.271,19.634,4.8a77.913,77.913,0,0,0,16.667-.824l-.05-.488a84.079,84.079,0,0,1-14.234.947,50.471,50.471,0,0,1-10.348-1.429c-3.245-.791-6.421-1.83-9.6-2.855-3.144-1.015-6.3-2.02-9.519-2.762a51.757,51.757,0,0,0-9.789-1.249c-5.925-.212-12.034.148-17.723-1.673h-1.429a28.306,28.306,0,0,0,6.394,1.609A88.718,88.718,0,0,0,464.918,193.791Z" transform="translate(-175.795 -191.689)" fill="#e29570"/><path d="M249.713,192.943c10.146,3.736,20.9,5.442,31.641,6.351,5.725.485,11.467.745,17.208.963,5.473.208,10.947.431,16.424.45,10.611.037,21.457-.714,31.49-4.427,2.284-.845,5.69-2.265,7.118-4.591h-.648c-.093.135-.192.268-.3.4a13.227,13.227,0,0,1-5.447,3.393c-9.673,3.762-20.162,4.676-30.458,4.732-5.236.029-10.469-.165-15.7-.356-5.536-.2-11.072-.42-16.6-.816-10.634-.761-21.307-2.183-31.477-5.493q-2.6-.845-5.151-1.859h-1.3Q248.1,192.351,249.713,192.943Z" transform="translate(-136.133 -191.689)" fill="#e29570"/><path d="M109.144,214.211c13.087-1.459,26.1-4.918,38.737-8.145,12.533-3.2,25.12-6.058,38.057-6.976a222.22,222.22,0,0,1,38.441,1.017c12.933,1.33,25.763,3.412,38.615,5.339,12.5,1.875,25.236,3.436,37.853,1.8a175.632,175.632,0,0,0,17.8-3.746,116.228,116.228,0,0,1,19.468-3.065c12.758-.817,25.538.37,38.249,1.389l78.631,6.3-.05-.5-68.533-5.495c-12.8-1.027-25.64-2.386-38.491-2.46a123.135,123.135,0,0,0-18.108,1.11c-6.251.892-12.345,2.532-18.485,3.962a95.013,95.013,0,0,1-19.531,2.673,134.459,134.459,0,0,1-18.93-1.106c-12.811-1.536-25.517-3.876-38.317-5.515a276.786,276.786,0,0,0-38.083-2.621,173.659,173.659,0,0,0-36.806,4.5c-16.649,3.79-33.426,9.167-50.475,11.076Z" transform="translate(-109.144 -192.961)" fill="#e29570"/><path d="M354.547,227h.548l1.372-2.2c.9-1.449,2.117-3.467.753-5.034-1.151-1.323-3.271-1.405-4.885-1.487a79.448,79.448,0,0,0-14.141,1.026q-6.956.9-13.85,2.221-7.822,1.5-15.529,3.529a.246.246,0,0,0,.131.475,233.1,233.1,0,0,1,26.373-5.339,126.99,126.99,0,0,1,13.659-1.438c1.118-.037,2.239-.036,3.356.02a12.556,12.556,0,0,1,2.818.368,2.886,2.886,0,0,1,2.074,1.58,3.7,3.7,0,0,1-.671,2.988C355.915,224.823,355.236,225.915,354.547,227Z" transform="translate(-148.339 -196.904)" fill="#e29570"/></g><path d="M90.708,373.635,106.193,191.3a1.184,1.184,0,1,1,2.359.2L93.067,373.835Z" transform="translate(-7.501 -30.34)" fill="#3e2e53"/><path d="M553.714,373.554l-17.7-183.539a1.184,1.184,0,0,1,2.358-.227l17.7,183.539C556.134,373.977,553.714,373.554,553.714,373.554Z" transform="translate(-94.989 -30.046)" fill="#3e2e53"/><rect width="358.838" height="6.437" transform="translate(92.948 154.623)" fill="#e29570"/><path d="M461.51,185.486H102.225a.2.2,0,1,1,0-.395H461.51a.2.2,0,1,1,0,.395Z" transform="translate(-9.725 -29.333)" fill="#ffcaa4"/><path d="M181.382,84.426l-8.229,18.746s18.456,28.418,27.315,26.483-9.294-23.329-9.294-23.329l5.815-11.387S189.764,82.082,181.382,84.426Z" transform="translate(-23.699 -9.5)" fill="#f8a68b"/><rect width="63.078" height="17.117" rx="5.53" transform="translate(369.836 167.358)" fill="#e29570"/><rect width="63.078" height="17.117" rx="5.53" transform="translate(297.172 167.358)" fill="#e29570"/><path d="M417.94,204.522H360.366a.2.2,0,0,1,0-.4H417.94a.2.2,0,0,1,0,.4Z" transform="translate(-60.442 -33.073)" fill="#ffcaa4"/><path d="M508.371,204.522H450.8a.2.2,0,0,1,0-.4h57.574a.2.2,0,1,1,0,.4Z" transform="translate(-78.209 -33.073)" fill="#ffcaa4"/><path d="M400.073,205.453H389a1.429,1.429,0,0,1-1.429-1.429h0A1.429,1.429,0,0,1,389,202.594h11.073a1.43,1.43,0,0,1,1.429,1.429h0A1.429,1.429,0,0,1,400.073,205.453Z" transform="translate(-65.826 -32.772)" fill="#fff"/><path d="M490.5,205.453H479.43A1.429,1.429,0,0,1,478,204.023h0a1.429,1.429,0,0,1,1.429-1.429H490.5a1.43,1.43,0,0,1,1.429,1.429h0A1.429,1.429,0,0,1,490.5,205.453Z" transform="translate(-83.593 -32.772)" fill="#fff"/><path d="M239.174,165.087c-1.23-9.139-1.8-17.985,2.018-24.633l-1.814-.977a4.555,4.555,0,0,0-2.483,1.946l-8.885,17.883C229.336,160.632,233.705,162.776,239.174,165.087Z" transform="translate(-34.477 -20.371)" fill="#ea8577"/><path d="M199.712,118.729s8.449,16.8,4.48,18.079,9.587,0,9.587,0S201.827,118.846,199.712,118.729Z" transform="translate(-28.917 -16.295)" fill="#ea8577"/><path d="M196.269,100.788l2.657-5.259c-5.058-4.148-15.911-8.39-15.911-8.39S186.723,98.825,196.269,100.788Z" transform="translate(-25.637 -10.088)" fill="#ea8577"/><path d="M138.654,207.8c0-.672-26.064-54.086-18.828-55.934s23.363,0,23.363,0l25.2,54.59Z" transform="translate(-12.973 -22.645)" fill="#ffc339"/><path d="M169.979,231.332s-28.643-36.394-25.787-52.644,26.911-7.412,26.911-7.412l21.589,59.029Z" transform="translate(-17.97 -26.148)" fill="#ff9c40"/><path d="M144.189,211.008a.2.2,0,0,1-.2-.174c-.054-.2-.792-1.816-1.81-4.037-5.677-12.382-20.755-45.275-17.934-51.183a1.6,1.6,0,0,1,1.065-.928c7.189-1.835,23.272-.023,23.433,0a.2.2,0,0,1,.157.113l25.2,54.589a.2.2,0,0,1-.17.28L144.2,211.008Zm.2-.2h0Zm-9.775-56.553a40.53,40.53,0,0,0-9.2.811,1.212,1.212,0,0,0-.806.716c-2.742,5.742,12.822,39.692,17.936,50.848,1.233,2.689,1.655,3.621,1.789,3.974l29.288-1.323-25.026-54.222C147.659,154.959,141.015,154.258,134.612,154.258Z" transform="translate(-14.023 -23.198)" fill="#503c6b"/><path d="M206.386,117.132l31.367,17.215c-4.2,2.732-7.424,17.431-8.468,28.02l-19.991-18.888Z" transform="translate(-30.229 -15.981)" fill="#9f6363"/><path d="M163.734,199.974s-17.227-35.915-25.175-65.49,1.38-29.743,8.043-30.409,19.155,3,19.155,3,22.087,26.483,27.315,26.483-9.294-23.329-9.294-23.329,14.539,4.313,25.353,21.331,6.952,24.343,7.785,31.5,15.132,36.912,15.132,36.912Z" transform="translate(-16.303 -13.4)" fill="#9f6363"/><path d="M188.387,75.826s1.258,12.207,10.124,15.768,11.987,2.386,13.132.831-.146-12.173-.146-12.173,4.313-.428,4.677-1.8c.219-.825-5.012-12.371-5.012-12.371l-1.021-8.834s-.636-8.627-13.92-5.187S188.387,75.826,188.387,75.826Z" transform="translate(-26.475 -3.037)" fill="#f8a68b"/><path d="M174.563,160.312c3.707-6.141,5.085-12.1,3.078-13.313S171,149.785,167.3,155.926s-5.085,12.1-3.078,13.313S170.856,166.453,174.563,160.312Z" transform="translate(-21.763 -21.807)" fill="#6f3d47"/><path d="M192.979,71.2s10.613,3.55,14.749-1.794,1.177-8.987,1.177-8.987L191.533,62.76Z" transform="translate(-27.31 -4.838)" fill="#ea8577"/><g transform="translate(119.205 90.594)"><g clip-path="url(#a)"><path d="M149.305,102.38a17.019,17.019,0,0,0,11.92,8.512.25.25,0,0,0,.278-.362,24.367,24.367,0,0,0-7.811-8.611c-.4-.268-.937-.715-1.454-.513a.653.653,0,0,0-.366.913c.137.286.563.036.426-.249l.364-.19a1.648,1.648,0,0,1,.307.157c.116.068.227.145.339.22q.3.2.6.411.665.471,1.3.989a23.93,23.93,0,0,1,5.875,7.123l.279-.362a16.551,16.551,0,0,1-11.625-8.284c-.153-.279-.579-.031-.426.248Z" transform="translate(-138.212 -103.476)" fill="#d4a488"/><path d="M132.309,117.566a29.133,29.133,0,0,1,8.952,1.116,6.781,6.781,0,0,1,2.507,1c1.661,1.4-1.924,3.132-2.935,3.505a9.3,9.3,0,0,1-5.17.375c-.309-.067-.442.409-.131.476a9.508,9.508,0,0,0,8.486-2.215,1.835,1.835,0,0,0,.632-1.655,2,2,0,0,0-1.148-1.236,12.762,12.762,0,0,0-2.288-.779q-1.345-.376-2.722-.624a30.189,30.189,0,0,0-6.182-.46.247.247,0,0,0,0,.493Z" transform="translate(-134.833 -106.561)" fill="#d4a488"/><path d="M153.935,133.392a17.14,17.14,0,0,0-1.043,2.688,12.906,12.906,0,0,0-.411,3.294,8.824,8.824,0,0,0,.682,3.384c.347.8.984,1.756,1.953,1.819.923.061,1.526-.727,1.862-1.487a12.346,12.346,0,0,0,.9-3.46,13.882,13.882,0,0,0-.029-3.591,7.358,7.358,0,0,0-1.01-3.3,1.4,1.4,0,0,0-2.1-.415,3.581,3.581,0,0,0-1.1,2.023c-.015.317.478.317.493,0a3.1,3.1,0,0,1,.824-1.528c.227-.264.4-.413.769-.316a1.734,1.734,0,0,1,1.053,1.144,12.417,12.417,0,0,1,.644,5.716,13.24,13.24,0,0,1-.66,2.947c-.248.716-.726,1.94-1.7,1.761-.939-.173-1.417-1.355-1.673-2.148a8.866,8.866,0,0,1-.4-2.9,12.412,12.412,0,0,1,.425-2.939,16.9,16.9,0,0,1,.961-2.448c.128-.288-.3-.539-.426-.249Z" transform="translate(-138.842 -109.495)" fill="#d4a488"/><path d="M155.71,188.129a7.024,7.024,0,0,1,.894-4.064c.615-1.079,1.908-2.723,3.311-2.636.865.054,1.055.972,1.07,1.677a16.45,16.45,0,0,1-.137,2.249,21.465,21.465,0,0,1-3.457,9.4c-.176.265.251.513.426.249a22.065,22.065,0,0,0,3.585-10.247c.1-1.181.4-3.353-1.146-3.769-1.442-.387-2.875,1.1-3.63,2.136a7.5,7.5,0,0,0-1.411,5.007c.027.314.52.317.493,0Z" transform="translate(-139.375 -119.109)" fill="#d4a488"/><path d="M192.538,193.09a11.346,11.346,0,0,1-7.413,6.592,16.325,16.325,0,0,1-5.45.681,7.474,7.474,0,0,1-4.8-1.592c-2.433-2.206-2.126-6.139-.889-8.878A9.2,9.2,0,0,1,181.1,184.3a7.774,7.774,0,0,1,5.106,1.135,5,5,0,0,1,1.88,2.034,2.049,2.049,0,0,1-.637,2.627.247.247,0,0,0,.248.426c1.527-.916,1.261-2.908.3-4.131a7.234,7.234,0,0,0-4.421-2.5,9.1,9.1,0,0,0-8.962,3.906c-1.92,2.7-2.854,6.682-1.274,9.76,1.818,3.544,6.522,3.643,9.952,3.063,4.227-.714,8.173-3.28,9.72-7.4.112-.3-.365-.426-.476-.131Z" transform="translate(-142.784 -119.666)" fill="#d4a488"/><path d="M183.911,222.053a28.962,28.962,0,0,1,7.216-7.2,22.085,22.085,0,0,1,4.512-2.534,4.244,4.244,0,0,1,2.815-.272,3.055,3.055,0,0,1,1.712,1.548c1.006,1.936.231,4.147-.448,6.052-.107.3.37.428.476.131.646-1.811,1.334-3.818.694-5.73a3.574,3.574,0,0,0-3.539-2.63c-1.876.087-3.708,1.248-5.261,2.213a29.38,29.38,0,0,0-8.6,8.171c-.182.261.245.508.426.249Z" transform="translate(-144.925 -125.099)" fill="#d4a488"/><path d="M241.941,184.2a13.694,13.694,0,0,1-6.786-.048,10.077,10.077,0,0,1-5.587-3.336c-1.282-1.757-1.278-4.32.732-5.525a8.291,8.291,0,0,1,5.964-.509,11.726,11.726,0,0,1,6.038,3.547c.214.236.562-.113.349-.349a12.181,12.181,0,0,0-5.877-3.58,9.314,9.314,0,0,0-6.415.3,4.02,4.02,0,0,0-1.818,5.3c.892,2.142,3.12,3.45,5.2,4.226a14.186,14.186,0,0,0,8.332.456.247.247,0,0,0-.131-.476Z" transform="translate(-153.715 -117.744)" fill="#d4a488"/><path d="M206.734,115.48a28.419,28.419,0,0,1,1.282,4.47q.239,1.2.37,2.412a5.943,5.943,0,0,0,.321,1.806,1.374,1.374,0,0,0,2.4.419,13.283,13.283,0,0,0,1.136-1.755q.589-.991,1.111-2.02c.144-.282-.281-.532-.426-.249a35,35,0,0,1-1.861,3.225c-.378.579-.963,1.256-1.635.588a2.746,2.746,0,0,1-.521-1.747,28.632,28.632,0,0,0-1.7-7.28c-.111-.294-.588-.167-.476.131Z" transform="translate(-149.498 -106.192)" fill="#d4a488"/><path d="M222.724,133.768a21.787,21.787,0,0,0-3.552,9.258c-.136,1-.466,2.994,1.033,3.143a3.475,3.475,0,0,0,2-.809l2.5-1.547,5.674-3.507c.27-.166.022-.593-.248-.426-2.893,1.787-5.767,3.606-8.678,5.363-.643.388-1.62.769-1.875-.242a5.743,5.743,0,0,1,.1-2.131,21.229,21.229,0,0,1,3.462-8.854c.178-.264-.249-.51-.426-.249Z" transform="translate(-151.92 -109.822)" fill="#d4a488"/><path d="M207.338,154.961a14.425,14.425,0,0,0,1.572,7.1c.915,1.875,2.634,4.647,5.078,4.337a2.2,2.2,0,0,0,1.958-2.023,6.847,6.847,0,0,0-1.162-3.6,15.537,15.537,0,0,0-4.762-6.082,2.315,2.315,0,0,0-1.8-.513,1.17,1.17,0,0,0-.917.881,6.852,6.852,0,0,0,.161,2.211c.049.313.525.18.475-.131a11.978,11.978,0,0,1-.165-1.588c-.01-.438.074-.784.578-.9a2.243,2.243,0,0,1,1.678.648,14.737,14.737,0,0,1,4.027,5.146,10.1,10.1,0,0,1,1.39,3.312,1.814,1.814,0,0,1-1.872,2.166,3.915,3.915,0,0,1-2.738-1.716,12.4,12.4,0,0,1-1.57-2.538,13.879,13.879,0,0,1-1.439-6.715c.02-.317-.473-.316-.493,0Z" transform="translate(-149.605 -113.847)" fill="#d4a488"/><path d="M184.478,151.782a9.186,9.186,0,0,1,.62-4.258,7.746,7.746,0,0,1,2.648-3.561,1.851,1.851,0,0,1,2.094-.231,2.646,2.646,0,0,1,.786,1.937,34.46,34.46,0,0,1,.117,5.192,36.151,36.151,0,0,1-.8,5.953l.412-.109-.611-.562c-.234-.215-.583.133-.349.349l.611.562a.249.249,0,0,0,.412-.108,37.048,37.048,0,0,0,.815-5.989,27.451,27.451,0,0,0-.182-5.834,2.683,2.683,0,0,0-.9-1.78,1.967,1.967,0,0,0-1.862-.2,6.623,6.623,0,0,0-3.213,3.278,9.685,9.685,0,0,0-1.083,5.362c.028.313.521.317.493,0Z" transform="translate(-145.025 -111.658)" fill="#d4a488"/><path d="M177.261,124.7a27.584,27.584,0,0,0,1.726,5.613,6.865,6.865,0,0,0,1.241,2.264,1.388,1.388,0,0,0,1.752.254,2.385,2.385,0,0,0,.665-1.888,9.309,9.309,0,0,0-.255-2.595,11.652,11.652,0,0,0-.939-2.542A8.725,8.725,0,0,0,180,123.578a1.884,1.884,0,0,0-2.088-.558,1.162,1.162,0,0,0-.473,1.705c.19.25.618,0,.426-.248a.677.677,0,0,1,.365-1.053,1.4,1.4,0,0,1,1.314.4,7.483,7.483,0,0,1,1.451,2.159,9.9,9.9,0,0,1,1.154,5.119,2.248,2.248,0,0,1-.281,1.149.831.831,0,0,1-1.285-.023,7.179,7.179,0,0,1-1.272-2.421,27.277,27.277,0,0,1-1.569-5.238c-.06-.311-.536-.179-.475.131Z" transform="translate(-143.704 -107.705)" fill="#d4a488"/><path d="M223.349,196.066a29.88,29.88,0,0,1,.2-5.211c.115-.9.276-1.8.476-2.689.139-.617.381-2.017,1.32-1.375a6.523,6.523,0,0,1,1.444,1.784,21.31,21.31,0,0,1,1.2,1.989,21.586,21.586,0,0,1,1.74,4.4.247.247,0,0,0,.476-.131,22.045,22.045,0,0,0-3.764-7.586c-.55-.714-1.6-1.722-2.383-.663a4.469,4.469,0,0,0-.566,1.72q-.248,1.156-.4,2.329a30.2,30.2,0,0,0-.229,5.429c.015.317.509.318.493,0Z" transform="translate(-152.662 -120.131)" fill="#d4a488"/></g></g><path d="M212.172,89.154c-.626-1.007-4.771-1.079-7.6-2.656,0,0,1.833,4.7,5.016,5.957S212.8,90.161,212.172,89.154Z" transform="translate(-29.873 -9.963)" fill="#fff"/><path d="M172.539,218.474c15.988-5.117,34.061-6.651,53.447-5.926l7.781,20.085-51.456,16.4Z" transform="translate(-23.579 -34.694)" fill="#ffd9b8"/><path d="M202.136,80.383c-.087,1.083-1.625,1.843-3.434,1.7s-3.205-1.142-3.118-2.225,1.625-1.843,3.434-1.7S202.224,79.3,202.136,80.383Z" transform="translate(-28.106 -8.321)" fill="#ea8577"/><path d="M212.658,96.62c-.062.4-.935.595-1.951.437s-1.788-.608-1.726-1.008.88-.237,1.895-.08S212.72,96.22,212.658,96.62Z" transform="translate(-30.738 -11.79)" fill="#ea8577"/><path d="M221.926,84.962c.107.41-1.008,1.053-2.489,1.438s-2.768.363-2.874-.047.951-.686,2.432-1.07S221.82,84.553,221.926,84.962Z" transform="translate(-32.227 -9.625)" fill="#ea8577"/><path d="M163.907,163.376s23.523,30.932,44.356,39,55.629,3.63,58.362,1.338-4.529-13.967-4.529-13.967,1.081-3.323.393-4.036-5.736-2.1-7.226-1.27-4.648,4.441-4.648,4.441a6.826,6.826,0,0,0-3.5.943c-1.773,1.042-3.061,6.818-3.061,6.818s-13.066-7.231-19.782-10.116a44.534,44.534,0,0,0-11.43-3.407L178.6,145.243C169.92,148.5,165.471,157.344,163.907,163.376Z" transform="translate(-21.883 -21.504)" fill="#f8a68b"/><path d="M218.27,211.789c1.2-2.212-.179-5.279-3.078-6.85s-6.221-1.051-7.42,1.161a3.847,3.847,0,0,0-.292,2.816,51.12,51.12,0,0,0,8.5,4.681A3.872,3.872,0,0,0,218.27,211.789Z" transform="translate(-30.416 -33.054)" fill="#ea8577"/><path d="M161.623,170.418a.2.2,0,0,1-.166-.089l-10.178-15.482a.2.2,0,1,1,.329-.217l10.179,15.482a.2.2,0,0,1-.165.306Z" transform="translate(-19.395 -23.331)" fill="#6f3d47"/><path d="M235.462,174.405a.2.2,0,0,1-.186-.13c-1.716-4.78-1.946-10.214-1.763-16.9-.23-10.775-11.075-25.46-11.184-25.607a.2.2,0,1,1,.317-.235c.11.148,11.03,14.932,11.262,25.843-.182,6.653.044,12.046,1.74,16.768a.2.2,0,0,1-.119.252A.191.191,0,0,1,235.462,174.405Z" transform="translate(-33.353 -18.795)" fill="#6f3d47"/><path d="M169.67,106.889l-.62-.156c1.553,2.022,6.891,8.877,12.826,15.491,8.814,9.822,14.987,14.787,18.376,14.787a2.933,2.933,0,0,0,.722-.085,2.643,2.643,0,0,0,1.9-1.659c1.871-4.7-5.3-17.581-8.4-22.783-.226-.112-.445-.218-.656-.317,2.843,4.752,10.535,18.312,8.686,22.954a2.238,2.238,0,0,1-1.628,1.423C194.308,138.2,173.865,112.312,169.67,106.889Z" transform="translate(-22.893 -13.938)" fill="#6f3d47"/><path d="M163.907,163.408s1.035,1.36,2.859,3.581c1.056-6.5,5.2-13.775,11.508-21.583C169.809,148.759,165.451,157.454,163.907,163.408Z" transform="translate(-21.883 -21.536)" fill="#ea8577"/><path d="M285.382,199.822l-2.952-2.98s2.206-.718,2.852,0S285.382,199.822,285.382,199.822Z" transform="translate(-45.169 -31.579)" fill="#ea8577"/><path d="M186.15,112.942c2.293,1.433,4.137,1.776,5.243.325a1.544,1.544,0,0,1-1.434,2.181C187.81,115.634,186.15,112.942,186.15,112.942Z" transform="translate(-26.253 -15.158)" fill="#ea8577"/><path d="M270.881,199.551l-3.824,4.509s-.039-2.664,1.185-3.644A4.072,4.072,0,0,1,270.881,199.551Z" transform="translate(-42.149 -32.173)" fill="#ea8577"/><path d="M235.281,137.536a5.352,5.352,0,0,1-2.987-3.428,3.238,3.238,0,0,1,.464-2.426l-.426-.234a3.975,3.975,0,0,0,0,4.08c1.466,2.512,4.449,3.135,7.015,3.928.384.118.767.247,1.143.391.083-.145.167-.28.251-.417A53.662,53.662,0,0,1,235.281,137.536Z" transform="translate(-35.215 -18.794)" fill="#d4a488"/><path d="M178.82,141.006l-13.482-17.229a.2.2,0,1,0-.31.243l13.4,17.129Z" transform="translate(-22.095 -17.272)" fill="#6f3d47"/><path d="M248.562,271.886H315.2s-1.088,18.862-31.117,18.862S248.562,271.886,248.562,271.886Z" transform="translate(-38.515 -46.386)" fill="#ff9c40"/><path d="M318.565,287.252c0,3.444-13.869,6.236-30.977,6.236s-30.977-2.792-30.977-6.236,13.869.46,30.977.46S318.565,283.808,318.565,287.252Z" transform="translate(-40.096 -49.126)" fill="#ffc339"/><path d="M194.372,221.154s114.881-22.435,123.555-21.584-43.072,55.277-77.493,60.38S194.372,221.154,194.372,221.154Z" transform="translate(-27.868 -32.173)" fill="#ffeddd"/><path d="M343.089,199.883l71.546,73.776S389.7,304.953,389.7,304.3s-70.577-75.427-70.577-75.427Z" transform="translate(-52.377 -32.239)" fill="#ffeddd"/><path d="M343.089,199.883l71.546,73.776S389.7,304.953,389.7,304.3s-70.577-75.427-70.577-75.427Z" transform="translate(-52.377 -32.239)" fill="#ffeddd"/><path d="M223.388,244.757,274,238.691l-28.024-5.276,75.91-7.266-75.91,41.376Z" transform="translate(-33.569 -37.4)" fill="#ffd9b8"/><path d="M340.8,226.149l-21.13,8.944c19,20.157,67.812,71.4,70.034,74.22l-29.711-43.724,40.245,31.322.131-.162-42.939-46.2,43.825,19.99Z" transform="translate(-52.485 -37.4)" fill="#ffd9b8"/><path d="M327.926,230.423c6.293,10.546,32.881,100.05,32.881,100.05L326.28,347.992l-27.043-78.238s-32.316,10.545-55.448.34S321.632,219.878,327.926,230.423Z" transform="translate(-36.902 -37.895)" fill="#ffeddd"/><path d="M466.353,347.665s-12.439-11.991-15.847-22.844c6.74-1.334,8.5-6.9,7.848-14.52,16.173-11.235,31.928-19.906,46.628-22.1Z" transform="translate(-78.191 -49.592)" fill="#9f6363"/><path d="M366.875,409.212s3.331-15.755,6.734-19.789c8.194,3.586,14.5,1.831,18.53-6.053,23.035,7.991,56.307,14.292,57.783,25.842Z" transform="translate(-61.76 -68.289)" fill="#9f6363"/><path d="M142.624,392.249l42.794-104.781a1.184,1.184,0,1,1,2.192.9L144.9,392.953S142.376,392.855,142.624,392.249Z" transform="translate(-17.698 -49.303)" fill="#3e2e53"/><path d="M291.179,393.642,264.659,291.51a1.184,1.184,0,0,1,2.292-.6l26.521,102.133C293.635,393.68,291.179,393.642,291.179,393.642Z" transform="translate(-41.67 -49.95)" fill="#3e2e53"/><path d="M256.252,330.944H180.1a1.184,1.184,0,1,1,0-2.367h76.151a1.184,1.184,0,1,1,0,2.367Z" transform="translate(-24.832 -57.524)" fill="#3e2e53"/><path d="M384.3,291.61a.2.2,0,0,1-.158-.08c-.489-.662-48.994-66.255-64.17-69.789-15.2-3.544-98.729,21.475-99.571,21.727a.2.2,0,0,1-.114-.378c.844-.253,84.479-25.3,99.774-21.735,6.439,1.5,19.235,13.728,38.033,36.345,13.985,16.827,26.243,33.428,26.365,33.595a.2.2,0,0,1-.042.276A.194.194,0,0,1,384.3,291.61Z" transform="translate(-32.932 -36.39)" fill="#e29570"/><path d="M339.731,345.344,314.338,287.98l44.226,46.873-52.731-68.391L325.9,253.3l-30.521,8.391,20.4-17.416-41.526,18.45,11.128-10.174-33.881,12.933,10.541,11.718c19.662,2.053,39.391-4.385,39.391-4.385l27.043,78.238-2.57-20.7Z" transform="translate(-39.091 -40.962)" fill="#ffd9b8"/><path d="M470.228,347.664l2.939,1.75,37.708-58.839-2.018-2.37Z" transform="translate(-82.066 -49.592)" fill="#ffd9b8"/><rect width="83.047" height="2.472" transform="translate(305.116 340.923)" fill="#ffd9b8"/><path d="M308.072,253.369c-5.063-4.435-36.2,9.823-56.724,21.818a.2.2,0,1,0,.2.34c19.911-11.634,51.405-26.115,56.266-21.862,4.908,4.3,35.5,90.408,35.807,91.277,0,.009.011.013.016.02l.348-.176C342.615,340.932,313.047,257.724,308.072,253.369Z" transform="translate(-39.043 -42.585)" fill="#e29570"/><rect width="458.908" height="0.789" transform="translate(61.149 343)" fill="#3e2e53"/><path d="M139.876,213.219l12.61,28.161a63.615,63.615,0,0,0,56.924,36.947l53.317.7s-13.962-2.2-28.66-25.476S185.193,207.1,139.876,213.219Z" transform="translate(-17.161 -34.664)" fill="#ffc339"/><path d="M235.886,265.445a269.115,269.115,0,0,0-19.526-23.776c-13.32-14.344-33.3-19.9-47.713-22.042a139.375,139.375,0,0,0-26.59-1.332l.173.387a139.167,139.167,0,0,1,26.369,1.337c26,3.859,40.164,14.049,47.473,21.919a269.03,269.03,0,0,1,19.5,23.743c4.805,6.42,8.329,11.125,12.5,14.31l.686.01C244.417,276.84,240.837,272.06,235.886,265.445Z" transform="translate(-17.59 -35.827)" fill="#3e2e53"/><path d="M211.671,70.519s-6.09,1.137-6.2,1.975,6.03,1.695,6.03,1.695S212.1,71.646,211.671,70.519Z" transform="translate(-30.049 -6.823)" fill="#fff"/><path d="M205.541,72.924a.192.192,0,0,1-.107-.031.2.2,0,0,1-.059-.272c1.479-2.3,6.713-2.368,6.935-2.37h0a.2.2,0,0,1,0,.395c-.052,0-5.242.066-6.607,2.189A.2.2,0,0,1,205.541,72.924Z" transform="translate(-30.024 -6.771)" fill="#503c6b"/><path d="M212.775,70.519s-.677.127-1.583.326a4.842,4.842,0,0,0-.1,1,3.331,3.331,0,0,0,.662,2.211c.515.083.854.13.854.13S213.2,71.646,212.775,70.519Z" transform="translate(-31.153 -6.823)" fill="#503c6b"/><path d="M211.926,75.121a.265.265,0,0,1-.043,0l-7.254-1.606a.2.2,0,0,1,.085-.386l7.254,1.606a.2.2,0,0,1-.042.39Z" transform="translate(-29.853 -7.334)" fill="#ea8577"/><path d="M160.3,56.48c-.937,4.56-3.9,8.326-5.324,12.711a12.8,12.8,0,0,0-.6,6.386,9.521,9.521,0,0,0,8.633,7.682c.314.026.392-.461.076-.488a9.128,9.128,0,0,1-8.235-7.338c-.8-4.328,1.453-8.431,3.335-12.157a27.146,27.146,0,0,0,2.6-6.721c.064-.311-.423-.386-.487-.076Z" transform="translate(-19.975 -4.026)" fill="#503c6b"/><path d="M182.707,46.319a7.708,7.708,0,0,0-6.272-3.211,12.817,12.817,0,0,0-7.6,2.673,4.8,4.8,0,0,0-2.315,3.534c-.009.313.479.392.488.076.049-1.716,1.527-2.865,2.858-3.711a13.37,13.37,0,0,1,4.467-1.883c2.928-.592,6.243.226,7.973,2.814.177.265.575-.027.4-.291Z" transform="translate(-22.397 -1.438)" fill="#503c6b"/><path d="M180.06,45.573c1.868,16.466,3.671,35.391,8.421,40.584-.731,2.351-13.679,1.059-25.838-5.107s-3.742-30.584,4.485-34.473S180.06,45.573,180.06,45.573Z" transform="translate(-20.436 -1.72)" fill="#503c6b"/><path d="M184.395,76.263c-1.332,2.212-24.52-3.756-19.16-22.754,4.188-12.754,16.375-9.49,16.375-9.49s11.311-11.3,22.687-5.953,10.839,17.567,8.655,22.176S208,65.258,208,65.258a8.722,8.722,0,0,0-1.593-6.916c-2.482-2.936-2.984-2.624-2.984-2.624a7.619,7.619,0,0,1-.615,7.585c-2.584,4.184-12.366,2.274-12.366,2.274l2.832-1.311a22.736,22.736,0,0,1-7.016-1.941C182.753,67.66,182.528,70.992,184.395,76.263Z" transform="translate(-21.986 -0.165)" fill="#503c6b"/><path d="M165.908,77.215c-5.514-.768-8-3.8-9.093-6.791-.922,6.574.4,12.959,5.829,15.711,12.158,6.166,25.106,7.458,25.838,5.107-2.553-2.791-4.254-9.55-5.572-17.759A25.065,25.065,0,0,1,165.908,77.215Z" transform="translate(-20.436 -6.805)" fill="#44335b"/><rect width="12.657" height="14.927" rx="6.276" transform="matrix(0.968, -0.251, 0.251, 0.968, 152.602, 64.021)" fill="#ffc339"/><path d="M183.133,83.713a1.91,1.91,0,0,1-1.553-1.406L179.6,74.68a1.9,1.9,0,0,1,1.367-2.323l5.033-1.3a1.906,1.906,0,0,1,2.324,1.366l1.977,7.627a1.908,1.908,0,0,1-1.367,2.323h0L183.9,83.674A1.91,1.91,0,0,1,183.133,83.713ZM186.711,71.4a1.511,1.511,0,0,0-.611.031l-5.033,1.3a1.512,1.512,0,0,0-1.084,1.842l1.977,7.627a1.511,1.511,0,0,0,1.842,1.083l5.033-1.3a1.512,1.512,0,0,0,1.083-1.842l-1.977-7.626a1.5,1.5,0,0,0-.7-.924A1.518,1.518,0,0,0,186.711,71.4Zm2.175,10.775h0Z" transform="translate(-24.954 -6.916)" fill="#503c6b"/><path d="M183.569,64.42a.592.592,0,0,1-.491-.474c-.008-.044-.853-4.517-1.317-9.37-.635-6.642-.268-10.825,1.09-12.434a2.754,2.754,0,0,1,2.66-1.234,3.619,3.619,0,0,1,2.1,1.719l-.942.728a2.637,2.637,0,0,0-1.4-1.288c-.455-.094-.963.188-1.512.84-2.325,2.754-.438,15.961.486,20.819a.592.592,0,0,1-.472.692A.583.583,0,0,1,183.569,64.42Z" transform="translate(-25.331 -0.997)" fill="#ffc339"/><path d="M181.6,75.054a24.7,24.7,0,0,0,1.045,3.47.247.247,0,0,0,.46-.18A23.957,23.957,0,0,1,182.094,75a.254.254,0,0,0-.273-.217.249.249,0,0,0-.217.273Z" transform="translate(-25.359 -7.66)" fill="#fff"/><path d="M183.5,81.266q.154.612.309,1.225a.242.242,0,0,0,.129.134.25.25,0,0,0,.191,0,.254.254,0,0,0,.139-.32l-.309-1.225a.25.25,0,0,0-.129-.134.247.247,0,0,0-.331.315Z" transform="translate(-25.73 -8.869)" fill="#fff"/><path d="M185.006,45.016a19.047,19.047,0,0,1,6.865-6.737c3.044-1.744,7.127-3.007,10.341-.963.265.169.579-.213.311-.383-2.574-1.636-5.719-1.327-8.447-.256a19.4,19.4,0,0,0-9.52,8.137c-.163.272.288.472.45.2Z" transform="translate(-25.933)" fill="#503c6b"/><path d="M367.516,281.741a.2.2,0,0,1-.182-.135l-12.815-38.561a.2.2,0,1,1,.374-.125l12.815,38.562a.2.2,0,0,1-.125.249A.188.188,0,0,1,367.516,281.741Z" transform="translate(-59.33 -40.668)" fill="#e29570"/><rect width="27.953" height="24.25" transform="translate(423.42 126.652) rotate(90)" fill="#ffc339"/><rect width="27.953" height="8.102" transform="translate(419.981 126.652) rotate(90)" fill="#ff9c40"/><rect width="27.953" height="2.514" transform="translate(405.141 126.652) rotate(90)" fill="#fff"/><path d="M516.1,176.478h-3.257a1.973,1.973,0,1,1,0-3.946H516.1a8.582,8.582,0,1,0,0-17.163h-4.036a1.973,1.973,0,1,1,0-3.946H516.1a12.528,12.528,0,0,1,0,25.056Z" transform="translate(-89.897 -22.718)" fill="#ffc339"/><rect width="41.022" height="2.62" transform="translate(260.734 151.985)" fill="#ffc339"/><path d="M303.717,72.181a.2.2,0,0,1-.121-.04.2.2,0,0,1-.036-.277l7.229-9.392a.2.2,0,1,1,.313.24L303.873,72.1A.2.2,0,0,1,303.717,72.181Z" transform="translate(-49.312 -5.227)" fill="#503c6b"/><path d="M310.18,72.056a.2.2,0,0,1-.1-.37l6.134-3.436a.2.2,0,1,1,.193.344l-6.134,3.436A.193.193,0,0,1,310.18,72.056Z" transform="translate(-50.582 -6.373)" fill="#503c6b"/><path d="M470.741,51.957h-.017a.2.2,0,0,1-.18-.213l.521-6.1a.2.2,0,0,1,.214-.179.2.2,0,0,1,.179.214l-.521,6.1A.2.2,0,0,1,470.741,51.957Z" transform="translate(-82.127 -1.901)" fill="#503c6b"/><path d="M479.48,58.726a.2.2,0,0,1-.078-.379l7.258-3.111a.2.2,0,0,1,.156.363l-7.258,3.111A.205.205,0,0,1,479.48,58.726Z" transform="translate(-83.844 -3.817)" fill="#503c6b"/><path d="M474.248,54.447a.194.194,0,0,1-.1-.026.2.2,0,0,1-.074-.268l7.229-12.689a.2.2,0,0,1,.343.194L474.42,54.348A.2.2,0,0,1,474.248,54.447Z" transform="translate(-82.817 -1.095)" fill="#503c6b"/><g transform="translate(309.405 317.049)"><path d="M409.473,396.411c.984-2.771,2.1-5.489,3.332-8.157l-.474-.143c-1.229,2.673-2.349,5.4-3.333,8.17C408.891,396.58,409.368,396.709,409.473,396.411Z" transform="translate(-379.437 -386.269)" fill="#ffd9b8"/><path d="M372.213,394.59a16.505,16.505,0,0,0,10.792,2.069,25.541,25.541,0,0,0,7.445-2.274,21.753,21.753,0,0,0,6.131-4.157,15.221,15.221,0,0,0,3.036-4.258l-.476-.151a17.745,17.745,0,0,1-8.1,7.728c-4.335,2.215-9.449,3.51-14.283,2.381a14.285,14.285,0,0,1-4.362-1.8Q372.3,394.355,372.213,394.59Z" transform="translate(-372.213 -385.819)" fill="#ffd9b8"/><path d="M431.725,400.919c.5-2.211,1.1-4.4,1.78-6.555l-.47-.147c-.686,2.165-1.288,4.354-1.785,6.571C431.18,401.1,431.656,401.229,431.725,400.919Z" transform="translate(-383.811 -387.469)" fill="#ffd9b8"/><path d="M423.323,400.665c.57-2.945,1.272-5.861,2.08-8.748l-.473-.141c-.809,2.891-1.512,5.81-2.083,8.758C422.788,400.845,423.263,400.977,423.323,400.665Z" transform="translate(-382.16 -386.989)" fill="#ffd9b8"/><path d="M416.585,398.8a51.1,51.1,0,0,1,2.558-8.714l-.469-.14a51.4,51.4,0,0,0-2.565,8.722C416.049,398.982,416.523,399.115,416.585,398.8Z" transform="translate(-380.836 -386.631)" fill="#ffd9b8"/></g><g transform="translate(374.465 246.3)"><path d="M491.348,302.462c.166.269.593.022.426-.249a18.475,18.475,0,0,1-1.986-4.442c-.149.074-.3.151-.45.226A18.939,18.939,0,0,0,491.348,302.462Z" transform="translate(-460.285 -297.771)" fill="#ffd9b8"/><path d="M463.346,320.293c-.867,5.057-3.36,9.91-7.7,12.82a15.311,15.311,0,0,1-2.465,1.339c.076.146.156.291.235.437a16.8,16.8,0,0,0,6.982-5.8c3.205-4.612,4.152-10.432,3.7-15.942-.047-.57-.109-1.139-.182-1.707l-.46.3A29.337,29.337,0,0,1,463.346,320.293Z" transform="translate(-453.181 -300.458)" fill="#ffd9b8"/><path d="M475.9,313.911q-1.187-3.544-2.154-7.154c-.145.091-.292.179-.437.271q.956,3.536,2.116,7.014C475.524,314.341,476,314.213,475.9,313.911Z" transform="translate(-457.135 -299.536)" fill="#ffd9b8"/><path d="M480.208,311.079c.11.295.587.167.476-.131a51.966,51.966,0,0,1-2.068-7.127l-.446.264A51.914,51.914,0,0,0,480.208,311.079Z" transform="translate(-458.09 -298.96)" fill="#ffd9b8"/><path d="M486.257,306.444c.11.295.587.167.476-.131-.728-1.959-1.377-3.945-1.964-5.949-.148.08-.3.158-.444.239C484.9,302.571,485.541,304.521,486.257,306.444Z" transform="translate(-459.3 -298.28)" fill="#ffd9b8"/></g></g></svg>